<?xml version="1.0" standalone="no"?>
<!DOCTYPE svg PUBLIC "-//W3C//DTD SVG 20010904//EN"
 "http://www.w3.org/TR/2001/REC-SVG-20010904/DTD/svg10.dtd">
<svg version="1.0" xmlns="http://www.w3.org/2000/svg"
 width="449.000000pt" height="442.000000pt" viewBox="0 0 449.000000 442.000000"
 preserveAspectRatio="xMidYMid meet">

<g transform="translate(0.000000,442.000000) scale(0.100000,-0.100000)"
fill="#000000" stroke="none">
<path d="M407 3936 c-101 -27 -185 -117 -207 -219 -7 -36 -10 -500 -8 -1552
l3 -1500 23 -46 c28 -56 83 -113 137 -142 l40 -22 1830 0 1830 0 42 23 c57 30
104 79 134 138 l24 49 0 1525 c0 1476 -1 1527 -19 1574 -25 66 -84 128 -149
157 l-52 24 -1790 2 c-1445 1 -1799 -1 -1838 -11z m3621 -180 c54 -28 57 -44
57 -350 l0 -281 -1858 -3 -1858 -2 3 296 3 296 33 29 32 29 1781 0 c1515 0
1784 -2 1807 -14z m62 -1931 c0 -1225 3 -1157 -60 -1190 -26 -13 -238 -15
-1811 -15 l-1781 0 -34 34 -34 34 0 1126 0 1126 1860 0 1860 0 0 -1115z"/>
<path d="M610 3502 c-39 -39 -39 -74 -1 -113 38 -37 82 -39 116 -4 50 50 23
130 -47 142 -32 5 -41 1 -68 -25z"/>
<path d="M940 3502 c-39 -39 -39 -74 -1 -113 38 -37 82 -39 116 -4 50 50 23
130 -47 142 -32 5 -41 1 -68 -25z"/>
<path d="M1270 3502 c-39 -39 -39 -74 -1 -113 38 -37 82 -39 116 -4 50 50 23
130 -47 142 -32 5 -41 1 -68 -25z"/>
<path d="M1545 2139 c-16 -6 -47 -24 -67 -41 l-38 -29 0 36 0 35 -65 0 -65 0
0 -385 0 -385 65 0 65 0 0 320 0 319 43 26 c43 25 91 32 114 17 28 -18 33 -70
33 -373 l0 -309 60 0 60 0 0 314 0 315 35 26 c45 35 108 44 135 20 19 -17 20
-32 20 -347 l0 -328 65 0 65 0 0 333 c0 305 -2 335 -19 374 -12 25 -32 48 -50
57 -63 33 -161 11 -226 -49 -19 -19 -30 -24 -33 -15 -3 7 -17 26 -32 43 -22
25 -35 31 -81 33 -30 2 -67 -1 -84 -7z"/>
<path d="M2335 2135 c-51 -18 -100 -71 -117 -127 -18 -61 -18 -446 0 -508 26
-85 107 -140 207 -140 136 0 215 85 215 232 l0 48 -64 0 -63 0 -6 -67 c-5 -57
-11 -72 -33 -91 -32 -28 -76 -24 -109 8 -17 18 -20 36 -23 140 l-4 120 152 0
152 0 -4 123 c-5 132 -22 191 -69 234 -47 42 -157 55 -234 28z m140 -108 c24
-20 27 -31 32 -110 l6 -87 -88 0 -88 0 5 87 c4 79 7 88 32 110 34 29 68 29
101 0z"/>
</g>
</svg>
