<?xml version="1.0" encoding="utf-8"?>
<!-- Generator: Adobe Illustrator 28.2.0, SVG Export Plug-In . SVG Version: 6.00 Build 0)  -->
<svg version="1.1" id="LOGO" xmlns="http://www.w3.org/2000/svg" xmlns:xlink="http://www.w3.org/1999/xlink" x="0px" y="0px"
	 viewBox="0 0 841.9 595.3" style="enable-background:new 0 0 841.9 595.3;" xml:space="preserve">
<path fill="#FF00FF" d="M338.1,308.3h-37.2c0.3,4.6,1.9,8.2,4.7,10.8c2.9,2.6,6.3,3.9,10.4,3.9c3.3,0,6.1-0.8,8.4-2.3c2.2-1.6,3.8-3.6,4.7-6.2h8.3
	c-1.2,4.5-3.7,8.1-7.5,10.9c-3.7,2.8-8.4,4.2-13.9,4.2c-4.4,0-8.4-1-11.9-3s-6.2-4.8-8.2-8.5c-2-3.7-3-7.9-3-12.7
	c0-4.8,1-9,2.9-12.7c1.9-3.6,4.6-6.4,8.1-8.4c3.5-2,7.5-2.9,12-2.9c4.4,0,8.3,1,11.7,2.9c3.4,1.9,6,4.6,7.9,7.9
	c1.8,3.4,2.8,7.2,2.8,11.4C338.3,305.1,338.3,306.7,338.1,308.3z M328.4,294.4c-1.3-2.1-3.1-3.7-5.3-4.8c-2.2-1.1-4.7-1.7-7.4-1.7
	c-3.9,0-7.2,1.2-10,3.7c-2.7,2.5-4.3,6-4.7,10.4h29.4C330.4,299.1,329.7,296.5,328.4,294.4z M353.3,288.5V316c0,2.3,0.5,3.9,1.4,4.8
	c1,0.9,2.6,1.4,5,1.4h5.7v6.5h-7c-4.3,0-7.5-1-9.7-3c-2.2-2-3.2-5.2-3.2-9.8v-27.5h-6v-6.4h6v-11.7h7.7v11.7h12.2v6.4H353.3z
	 M404.1,283.5c2.8,1.5,5.1,3.8,6.7,6.8c1.6,3,2.4,6.7,2.4,11v27.5h-7.7v-26.4c0-4.6-1.2-8.2-3.5-10.7c-2.3-2.5-5.5-3.7-9.5-3.7
	c-4.1,0-7.3,1.3-9.7,3.8c-2.4,2.6-3.6,6.3-3.6,11.1v25.8h-7.7v-62.9h7.7v23c1.5-2.4,3.6-4.2,6.3-5.5c2.7-1.3,5.7-2,9.1-2
	C398.1,281.3,401.2,282,404.1,283.5z M432.7,328.7v-7.8h-7.8v7.8H432.7z M452,328.7v-46.6h-7.8v46.6H452z M479.1,328.7v-38.8h-7.8
	v38.8H479.1z M506.3,328.7v-38.8h-7.8v38.8H506.3z M548.9,282.1h-31.1v7.8h31.1V282.1z M498.5,282.1h-7.8v7.8h7.8V282.1z
	 M471.4,282.1h-7.8v7.8h7.8V282.1z M517.9,328.7h31v-7.8h-31V328.7z M517.9,309.3h31v-7.8h-31V309.3z"/>
</svg>
